<?xml version="1.0" encoding="UTF-8"?>
<svg id="Layer_2" data-name="Layer 2" xmlns="http://www.w3.org/2000/svg" viewBox="0 0 398.96 500.91">
  <defs>
    <style>
      .cls-1 {
        fill: #fff;
        stroke-width: 0px;
      }
    </style>
  </defs>
  <g id="Layer_1-2" data-name="Layer 1">
    <g>
      <path class="cls-1" d="m195.23,142.78h-64.64V0c89.64,13.93,178.96,27.8,268.37,41.69v459.11h-203.73V142.78Zm121.93.87v5.98c0,97.24,0,194.47,0,291.71,0,1.17-.27,2.44.1,3.48.37,1.02,1.39,2.55,2.15,2.57,9.79.17,19.58.11,29.58.11V143.65h-31.82Zm-41.64,259.34V143.73h-31.32v259.27h31.32Z"/>
      <path class="cls-1" d="m0,500.91V175.24h162.74v325.67H0ZM105.49,240.84h-48.1v31.45h48.1v-31.45Zm.01,73.34h-48.03v31.46h48.03v-31.46Zm-48.14,73.27v31.46h48.05v-31.46h-48.05Z"/>
    </g>
  </g>
</svg>