<?xml version="1.0" encoding="UTF-8"?>
<svg id="Layer_2" data-name="Layer 2" xmlns="http://www.w3.org/2000/svg" viewBox="0 0 462.76 501.91">
  <defs>
    <style>
      .cls-1 {
        fill: #fff;
        stroke-width: 0px;
      }
    </style>
  </defs>
  <g id="Layer_1-2" data-name="Layer 1">
    <g>
      <path class="cls-1" d="m57.48,100.4c11.52,10.6,22.71,20.89,33.9,31.18-33.81,41.79-49.68,89.83-45.5,144.36,4,52.13,25.29,95.79,62.79,130.31,70.71,65.07,174.1,63.79,243.01,2.19,39.33-35.16,61.48-80.02,65.3-134.06,3.82-54.01-12.21-101.46-45.58-142.8,11.17-10.28,22.37-20.57,33.73-31.02,1.7,2.08,3.39,4.08,5,6.14,26.89,34.45,43.56,73.65,50.03,117.58,2.06,13.97,2.91,28.05,2.49,42.18-1.42,47.78-14.91,91.5-40.98,130.83-12.65,19.07-28.18,35.44-45.17,50.29-5.23,4.58-10.59,9.06-16.22,13.08-16.29,11.63-33.83,20.77-52.45,27.61-16.66,6.12-33.77,10.16-51.31,12.17-10.76,1.24-21.57,1.74-32.4,1.33-38.15-1.43-73.9-11.83-107.1-31.59-17.02-10.14-32.56-22.35-46.6-36.63-27.36-27.82-47.06-60.66-59.02-98.54-4.68-14.83-7.83-30.03-9.68-45.53-1.62-13.6-2.12-27.25-1.43-40.91,2.52-49.83,18.1-94.75,46.87-134.62,3.13-4.34,6.55-8.44,9.83-12.66.17-.21.26-.49.47-.89Z"/>
      <path class="cls-1" d="m380.03,236.77c-29.68,31.03-59.28,61.97-88.84,92.86-3.51-2-7.07-4.21-10.78-6.09-8.03-4.05-16.54-6.51-25.41-7.51-3.8-.43-7.62-.85-11.43-.9-15.17-.18-29.94,2.47-44.32,7.41-5.91,2.03-11.66,4.59-17.46,6.95-.73.3-1.17.25-1.75-.35-8.7-9-17.43-17.96-26.15-26.94-15.38-15.84-30.8-31.64-46.1-47.56-5.66-5.88-11.04-12.06-16.55-18.1-.2.14-.4.29-.6.43.29-.28.56-.59.87-.84,23.23-18.06,48.26-32.62,75.95-41.73,8.95-2.95,18.2-4.88,27.29-7.35,1.48-.4,2.38.03,3.39,1.16,11.21,12.56,22.47,25.08,33.73,37.61,1.04,1.16,2.09,2.3,3.23,3.56.33-.32.65-.57.91-.88,10.65-12.35,21.3-24.71,31.96-37.07.46-.53,1.04-.98,1.37-1.59,1.63-3,3.91-3.02,6.89-2.39,21.08,4.45,41.28,11.56,60.62,21.37,14.6,7.4,28.49,16.02,41.35,26.39.66.53,1.29,1.08,1.84,1.54Z"/>
      <path class="cls-1" d="m235.21,0c41.08-.23,76.49,34.5,76.45,80.01-.03,45-35.11,80.68-78.08,79.81-42.14-.85-75.85-37.38-74.89-81.83C159.62,35.17,193.4-.22,235.21,0Z"/>
    </g>
  </g>
</svg>