<?xml version="1.0" encoding="utf-8"?>
<!-- Generator: Adobe Illustrator 25.0.0, SVG Export Plug-In . SVG Version: 6.00 Build 0)  -->
<svg version="1.1" id="Layer_1" xmlns="http://www.w3.org/2000/svg" xmlns:xlink="http://www.w3.org/1999/xlink" x="0px" y="0px"
	 viewBox="0 0 512 511.1" style="enable-background:new 0 0 512 511.1; fill: #D3D0CB;" xml:space="preserve">
<g>
	<path d="M181.9,2.6h328.4v60.2c-109.5,0-218.9,0-328.4,0C181.9,42.7,181.9,22.7,181.9,2.6z"/>
	<path d="M13.8,49.2c4.3-2.1,9.2-1.6,13.8-1.7c41.3,0,82.6,0,123.9,0c0,119.5,0,239,0,358.5c59.9,0.1,119.8,0,179.7,0
		c0,12.4,0,24.7,0,37.1c-103.2,0.1-206.3,0-309.5,0c-6.5,0-12.9,1.2-18.9,3.7V64.5C3.5,57.9,7.7,51.8,13.8,49.2z"/>
	<path d="M228.2,93.4c3.7-1.2,7.7-0.8,11.5-0.9c72.7,0,145.3,0,218,0c6-0.2,12,2.7,15.5,7.6c4.3,5.7,4.7,14,1.1,20.1
		c-3.3,5.9-9.9,9.6-16.6,9.4c-74.3,0-148.7,0-223,0c-5,0.1-10.1-1.7-13.7-5.3c-4.7-4.5-6.8-11.5-5.1-17.8
		C217.4,100.5,222.2,95.3,228.2,93.4z"/>
	<path d="M181.9,159.4c109.5,0,218.9,0,328.4,0v60.2c-109.5,0-218.9,0-328.4,0C181.9,199.5,181.9,179.4,181.9,159.4z"/>
	<path d="M229.1,249.9c3.5-0.9,7.1-0.6,10.6-0.7c72.7,0,145.4,0,218.1,0c7.7-0.3,15.2,4.7,17.8,12c2.8,7.1,0.6,15.8-5.2,20.7
		c-3.5,3-8,4.6-12.6,4.5c-74.7,0-149.4,0-224.1,0c-9.4,0.2-17.9-7.8-18.4-17.2C214.6,260.6,220.7,252,229.1,249.9z"/>
	<path d="M181.9,316.2c109.5-0.1,218.9,0,328.4,0v60.2c-109.5,0-218.9,0-328.4,0C181.9,356.3,181.9,336.2,181.9,316.2z"/>
	<path d="M2.8,489.8c0.9-9.3,9.3-17.1,18.8-16.8c103.2,0,206.4,0,309.6,0c0,12.4,0,24.8,0,37.1H19.5c-8.4-0.9-15.3-7.8-16.7-16
		V489.8z"/>
</g>
</svg>
