<?xml version="1.0" encoding="utf-8"?>
<!-- Generator: Adobe Illustrator 25.0.0, SVG Export Plug-In . SVG Version: 6.00 Build 0)  -->
<svg version="1.1" id="Layer_1" xmlns="http://www.w3.org/2000/svg" xmlns:xlink="http://www.w3.org/1999/xlink" x="0px" y="0px"
	 viewBox="0 0 512 511.1" style="enable-background:new 0 0 512 511.1; fill: #D3D0CB;" xml:space="preserve">
<g>
	<path d="M415.2,128.8c5.7-21.9,29-37.5,51.9-34.7c23.1,1.9,42.7,22.3,43.3,45.1c1.6,22.6-15.6,44.5-38.3,48.8
		c-8.2,1.9-16.7,1.1-24.7-1.3c-23.9,37.5-47.7,75-71.5,112.6c11.6,12.1,16.3,30.2,11.3,46.1c-5.6,19.8-25.5,34.5-46.5,34.2
		c-20.5,0.3-40-13.6-46.1-32.7c-3.5-10.1-3-21.2,0.6-31.2c-26.9-18.3-53.7-36.6-80.7-54.8c-13.8,11.7-34.3,15-51,7.6
		c-25.2,31.3-50.3,62.8-75.5,94.1c10.7,14,13.3,33.6,5.3,49.3C84.6,430.6,62.6,442,42,438.5c-21.6-3-39.6-21.9-40.8-43.4
		c-1.6-17.6,7.8-35.4,23.2-44.4c13.2-8,30.3-9,44.6-2.9c25.2-31.4,50.3-62.8,75.5-94.1c-10.5-13.7-13.2-32.8-5.8-48.4
		c8.7-19.8,32.2-31.8,53.7-27.2c21.4,3.8,38.5,23.3,39,44.7c0.4,6.3-1.1,12.4-3,18.3c26.8,18.4,53.8,36.5,80.6,54.9
		c12.6-10.5,30.5-14.5,46.3-9.3c23.8-37.5,47.7-75,71.5-112.5C415.3,162.3,410.6,144.6,415.2,128.8z"/>
</g>
</svg>
