<?xml version="1.0" encoding="utf-8"?>
<!-- Generator: Adobe Illustrator 25.0.0, SVG Export Plug-In . SVG Version: 6.00 Build 0)  -->
<svg version="1.1" id="Layer_1" xmlns="http://www.w3.org/2000/svg" xmlns:xlink="http://www.w3.org/1999/xlink" x="0px" y="0px"
	 viewBox="0 0 512 511.1" style="enable-background:new 0 0 512 511.1; fill: #D3D0CB;" xml:space="preserve">
<g>
	<g>
		<path d="M64,3.1c3.1-0.4,6.2-0.5,9.4-0.5c122.8,0,245.5,0,368.3,0c16.6-0.1,33.3,6,45.7,17c13,11.3,21.7,27.5,23.4,44.7
			c1.9,16.5-2.5,33.7-12.1,47.3c-12.5,18.1-34,29.6-56,29.6c-123.5,0-246.9,0-370.4,0c-15.3,0.1-30.6-5.3-42.6-14.8
			C16.9,116.5,7.8,102,4.6,86.1c-3.5-16.4-0.8-34,7.6-48.5C22.7,18.8,42.5,5.5,64,3.1z M67.1,49.4c-9.1,2-16.5,10-17.7,19.3
			c-1.3,8.3,2.5,17.2,9.4,22c6.7,4.9,16.1,5.7,23.5,2c7.2-3.4,12.3-10.7,12.9-18.6c0.8-7.8-2.7-15.8-8.9-20.5
			C81,49.4,73.7,47.8,67.1,49.4z M158.3,49.7c-8.9,2.5-15.7,10.7-16.5,19.9c-0.9,8,2.8,16.3,9.4,21c7,5.2,17.1,5.8,24.7,1.5
			c7.2-3.9,12-11.9,11.9-20.2c0.1-7.9-4.3-15.7-11.1-19.8C171.2,48.8,164.4,47.9,158.3,49.7z"/>
	</g>
	<g>
		<path d="M64,187.2c5.3-0.6,10.6-0.5,15.9-0.5c117.3,0,234.6,0,351.9,0c7.6,0,15.3-0.3,22.8,1.2c17.1,3.1,32.8,13,43,27
			c10.1,13.5,14.9,30.8,13.2,47.6c-1.6,18.3-11.1,35.7-25.3,47.2c-12.2,10.1-28.1,15.6-44,15.5c-123.1,0-246.2,0-369.3,0
			c-23.9,0.2-47.2-13.1-59.4-33.6C3,275.5,0.3,255.2,5.5,237.1C12.7,210.8,36.8,190.1,64,187.2z M67.1,233.5
			c-9.1,2-16.5,10-17.7,19.2c-1.3,8.6,2.8,17.8,10.1,22.5c6.6,4.5,15.7,5.1,22.9,1.5c7.1-3.4,12.2-10.7,12.8-18.5
			c0.8-7.8-2.7-15.8-8.9-20.5C81,233.5,73.7,231.9,67.1,233.5z M158.2,233.8c-8.9,2.5-15.7,10.7-16.5,19.9
			c-1,8.8,3.6,17.8,11.3,22.2c7.1,4.3,16.5,4.2,23.5-0.1c6.9-4,11.3-11.8,11.2-19.8c0.1-7.7-4-15.2-10.4-19.3
			C171.8,233,164.6,231.9,158.2,233.8z"/>
	</g>
	<g>
		<path d="M64,371.3c5.3-0.6,10.6-0.5,15.9-0.5c120.6,0,241.2,0,361.8,0c16.6-0.1,33.3,5.9,45.8,17c12.7,11,21.3,26.8,23.3,43.5
			c2.1,16.2-1.7,33.1-10.8,46.7c-12.3,19.1-34.5,31.4-57.2,31.4c-123.5,0-246.9,0-370.4,0c-18.9,0.1-37.7-8.1-50.5-22
			c-11.3-11.8-18-27.8-18.7-44c-0.7-14.3,3.2-28.9,11-40.9C25.1,385.4,43.8,373.5,64,371.3z M67.1,417.5
			c-9.9,2.1-17.6,11.4-17.9,21.5c-0.6,9.6,5.6,19.1,14.6,22.5c8.3,3.4,18.5,1.3,24.8-5.2c6.4-6.3,8.5-16.5,5.1-24.9
			C89.8,421.2,77.9,414.9,67.1,417.5z M158.2,417.9c-8.9,2.5-15.8,10.7-16.5,19.9c-0.9,8.5,3.4,17.3,10.6,21.8
			c6.9,4.5,16.3,4.8,23.5,0.7c7.2-3.9,12-11.9,11.9-20.1c0.1-7.7-4-15.2-10.4-19.4C171.8,417.1,164.6,416,158.2,417.9z"/>
	</g>
</g>
</svg>
