<?xml version="1.0" encoding="utf-8"?>
<!-- Generator: Adobe Illustrator 25.0.0, SVG Export Plug-In . SVG Version: 6.00 Build 0)  -->
<svg version="1.1" id="Layer_1" xmlns="http://www.w3.org/2000/svg" xmlns:xlink="http://www.w3.org/1999/xlink" x="0px" y="0px"
	 viewBox="0 0 512 511.1" style="enable-background:new 0 0 512 511.1; fill: #D3D0CB;" xml:space="preserve">
<g>
	<path d="M238.7,5.2c25.7-4.2,52.8,1.6,74.4,16.1c28.4,18.5,46.8,51.6,47,85.5c0,13.1,0.3,26.2-0.3,39.3
		c-1.8,28.3-10.4,56.2-24.7,80.7c-9.1,16-21.3,30-34.3,43c-10.4,9.8-24.5,15.3-38.7,15.5c-8.6,0-17.3,0.5-25.7-1.4
		c-8.5-1.9-16.6-5.9-23.4-11.3c-31.4-28.3-53.7-67-60.1-108.9c-3.2-18.2-2.3-36.7-2.4-55.1c-0.1-22.6,7.5-45.2,21.3-63.1
		C187.9,24.1,212.4,9.5,238.7,5.2z"/>
	<path d="M178.1,301.4c2.1-5,8.9-6.6,13.3-3.6c21.4,12.7,42.6,25.7,64,38.5c21.4-12.8,42.8-25.7,64.3-38.6
		c4.7-3.1,11.7-0.6,13.5,4.8c3.8,9.4,7.6,18.8,11.2,28.4c20.5,7.3,40.9,14.8,61.5,22c20.7,5.5,39.3,18.4,51.6,35.9
		c9.5,13.3,15.2,29.2,16.6,45.4C419.2,479.1,349.5,504.5,279,509c-1.7-19-3.3-37.9-5-56.9c-0.4-4,0.5-8,2.5-11.5
		c5.6-9.3,10.9-18.7,16.2-28.1c2-3.3,2.1-7.5,0.1-10.8c-4.5-8-9.1-15.9-13.7-23.8c-1.8-3.4-5.2-5.9-9.1-6c-8.1-0.3-16.2,0-24.3-0.1
		c-3.1,0.1-6.6-0.3-9.4,1.4c-3.3,1.8-4.9,5.3-6.7,8.4c-3.8,6.8-8,13.5-11.7,20.4c-2,3.5-1.5,7.9,0.6,11.2c5.3,9.2,10.5,18.5,16,27.5
		c2,3.4,2.9,7.4,2.5,11.3c-1.6,19-3.3,38-5,57c-70.5-4.2-140.1-29.4-195.2-73.8c1.8-25.6,14.9-50.3,35.2-66
		c10.1-7.9,21.9-13.6,34.4-16.9c20.1-7,40.1-14.4,60.2-21.5C170.2,321,174,311.1,178.1,301.4z"/>
</g>
</svg>
