<?xml version="1.0" encoding="utf-8"?>
<!-- Generator: Adobe Illustrator 25.0.0, SVG Export Plug-In . SVG Version: 6.00 Build 0)  -->
<svg version="1.1" id="Layer_1" xmlns="http://www.w3.org/2000/svg" xmlns:xlink="http://www.w3.org/1999/xlink" x="0px" y="0px"
	 viewBox="0 0 512 511.1" style="enable-background:new 0 0 512 511.1; fill: #D3D0CB;" xml:space="preserve">
<g>
	<g>
		<path d="M11.3,16.8C18.6,7.6,30,2.1,41.7,2.2c90.5,0,181.1,0,271.6,0c10-0.2,20.2,3.3,27.5,10.2c8.4,7.5,13,18.8,12.7,30
			c0,155.5,0,310.9,0,466.4c-32.5,0-65,0-97.4,0c0-39,0-77.9,0-116.9c6.5,0,13,0,19.5,0c0-13,0-26,0-39c-65,0-129.9,0-194.9,0
			c0,13,0,26,0,39c6.5,0,13,0,19.5,0c0,39,0,77.9,0,116.9c-32.5,0-65,0-97.4,0c0-155.5,0-311,0-466.5C2.5,33.1,5.5,23.9,11.3,16.8z
			 M70.9,80.1c0,13,0,26,0,39c71.5,0,142.9,0,214.4,0c0-13,0-26,0-39C213.9,80.1,142.4,80.1,70.9,80.1z M70.9,167.8c0,13,0,26,0,39
			c71.5,0,142.9,0,214.4,0c0-13,0-26,0-39C213.9,167.8,142.4,167.8,70.9,167.8z M70.9,255.5c0,13,0,26,0,39c71.5,0,142.9,0,214.4,0
			c0-13,0-26,0-39C213.9,255.5,142.4,255.5,70.9,255.5z"/>
	</g>
	<g>
		<path d="M392.5,126.5c35.2,17.6,70.4,35.2,105.5,52.8c7.2,3.3,11.8,11,11.4,18.9c0,103.5,0,207.1,0,310.6c-39,0-77.9,0-116.9,0
			C392.5,381.4,392.5,253.9,392.5,126.5z M431.5,249.5c0,19.5,0,39,0,58.5c13,0,26,0,39,0c0-19.5,0-39,0-58.5
			C457.4,249.5,444.5,249.5,431.5,249.5z M431.5,366.4c0,19.5,0,39,0,58.5c13,0,26,0,39,0c0-19.5,0-39,0-58.5
			C457.4,366.4,444.5,366.4,431.5,366.4z"/>
	</g>
	<path d="M139.2,391.9c26,0,52,0,77.9,0c0,39,0,77.9,0,116.9c-26,0-52,0-77.9,0C139.2,469.8,139.2,430.9,139.2,391.9z"/>
</g>
</svg>
