<?xml version="1.0" encoding="utf-8"?>
<!-- Generator: Adobe Illustrator 25.0.0, SVG Export Plug-In . SVG Version: 6.00 Build 0)  -->
<svg version="1.1" id="Layer_1" xmlns="http://www.w3.org/2000/svg" xmlns:xlink="http://www.w3.org/1999/xlink" x="0px" y="0px"
	 viewBox="0 0 512 511.1" style="enable-background:new 0 0 512 511.1; fill: #D3D0CB;" xml:space="preserve">
<g>
	<path d="M224.9,4.7c36-5.6,73.6-1.4,107.4,12.4c35.1,14.2,66,38.6,88.2,69.3c18.3,25.1,30.5,54.5,35.8,85.1
		c8.6,0.1,17.6-0.7,25.8,2.5c16.1,5.6,27.8,21.7,28,38.7c0.1,29,0.1,57.9,0,86.9c-0.2,18.8-14.4,36.2-32.8,40.2
		c-6.9,1.6-14,1-21,1.1c-6.8,40-25.8,77.8-54,107c-38.1,40-93,63.4-148.3,62.3c-8.6-0.9-15.6-9.3-14.8-18c0.4-8.6,8.2-16,16.8-15.8
		c15.4-0.1,30.8-2.1,45.6-6.2c34.5-9.5,65.6-30.5,87.6-58.6c23.1-29.2,36.1-66.2,36.2-103.5c0.1-34.6,0.1-69.2,0-103.7
		c-0.1-34.2-11-68.2-30.8-96.1c-20-28.5-48.9-50.7-81.7-62.3c-31.2-11.2-65.8-12.8-98-4.7c-34,8.4-65,27.9-87.7,54.5
		c-21.8,25.4-35.8,57.4-39.4,90.7c-1.4,11.6-1.1,23.3-1.1,35c0,33.5,0,67.1,0,100.6c1.2,10.1-7.7,19.8-17.9,19
		c-9.2-0.1-18.4,0.2-27.6-0.2c-16-1-30.8-12.1-36.4-27.2c-2.4-6.1-2.9-12.8-2.8-19.3c0-26.8,0-53.6,0-80.4c0-9.1,3-18.2,8.5-25.4
		C17.7,179,29,172.7,41,171.9c4.9-0.3,9.9-0.1,14.8-0.2c7.1-42.3,28-82,58.8-111.8C144.6,30.6,183.6,11,224.9,4.7z"/>
	<path d="M248.9,70.2c28.3-1.6,57.1,6,80.8,21.6c27.6,17.8,48.3,45.9,57,77.6c3.5,12.4,5,25.4,4.9,38.3c0,21.5,0,43.1,0,64.6
		c-0.1,13.4,0.5,26.8-1.8,40.1c-5.6,34.7-25.4,66.7-53.8,87.3c-22.1,16.3-49.2,25.5-76.6,26.1c-31.3,0.9-62.8-9.7-87.2-29.2
		c-25.8-20.3-43.9-50.4-49.4-82.8c-2.7-14.3-1.9-29-2-43.5c0-22.6-0.1-45.2,0.1-67.7c0.6-35.2,15.9-69.8,41.3-94.2
		C185.1,85.6,216.6,71.8,248.9,70.2z"/>
</g>
</svg>
